<svg aria-hidden="true" style="position: absolute; width: 0; height: 0; overflow: hidden;" version="1.1" xmlns="http://www.w3.org/2000/svg" xmlns:xlink="http://www.w3.org/1999/xlink">
<defs>
<symbol id="icon-pick-bg" viewBox="0 0 68 32">
<path d="M23.398 0v7.398h20.989v-7.398c-3.166 1.531-6.727 2.409-10.495 2.409s-7.329-0.877-10.495-2.409zM44.387 31.983v-7.398h-20.989v7.398c3.166-1.531 6.727-2.409 10.495-2.409s7.329 0.86 10.495 2.409zM8.602 7.398h50.409c4.748 0 8.602 3.854 8.602 8.602v0c0 4.748-3.854 8.602-8.602 8.602h-50.409c-4.748 0-8.602-3.854-8.602-8.602v0c0-4.748 3.854-8.602 8.602-8.602z"></path>
</symbol>
<symbol id="icon-ban-bg" viewBox="0 0 65 32">
<path fill="#a6ce39" style="fill: var(--color1, #a6ce39)" d="M65.166 13.155h-2.006v5.691h2.006c-0.418-0.86-0.652-1.825-0.652-2.845s0.234-1.985 0.652-2.845z"></path>
<path fill="#d2042d" style="fill: var(--color2, #d2042d)" d="M6.344 11.664v2.004h5.691v-2.004c-0.86 0.417-1.825 0.651-2.845 0.651s-1.985-0.234-2.845-0.651z"></path>
<path fill="#d2042d" style="fill: var(--color2, #d2042d)" d="M43.009 11.662v2.006h5.691v-2.006c-0.86 0.417-1.825 0.652-2.845 0.652s-1.985-0.234-2.845-0.652z"></path>
<path fill="#d2042d" style="fill: var(--color2, #d2042d)" d="M12.035 20.336v-2.004h-5.691v2.004c0.86-0.417 1.825-0.651 2.845-0.651s1.985 0.234 2.845 0.651z"></path>
<path fill="#d2042d" style="fill: var(--color2, #d2042d)" d="M48.7 20.338v-2.006h-5.691v2.006c0.86-0.417 1.825-0.652 2.845-0.652s1.985 0.234 2.845 0.652z"></path>
<path fill="#d2042d" style="fill: var(--color2, #d2042d)" d="M2.332 13.668h58.496c1.288 0 2.332 1.044 2.332 2.332s-1.044 2.332-2.332 2.332h-58.496c-1.288 0-2.332-1.044-2.332-2.332s1.044-2.332 2.332-2.332z"></path>
<path fill="#a6ce39" style="fill: var(--color1, #a6ce39)" d="M57.329 13.668h3.499c1.288 0 2.332 1.044 2.332 2.332s-1.044 2.332-2.332 2.332h-3.499c-1.288 0-2.332-1.044-2.332-2.332s1.044-2.332 2.332-2.332z"></path>
<path fill="#a6ce39" style="fill: var(--color1, #a6ce39)" d="M60.828 0c1.288 0 2.332 1.044 2.332 2.332v27.335c0 1.288-1.044 2.332-2.332 2.332s-2.332-1.044-2.332-2.332v-27.335c0-1.288 1.044-2.332 2.332-2.332z"></path>
</symbol>
</defs>
</svg>
