<svg aria-hidden="true" style="position: absolute; width: 0; height: 0; overflow: hidden;" version="1.1" xmlns="http://www.w3.org/2000/svg" xmlns:xlink="http://www.w3.org/1999/xlink">
<defs>
<symbol id="icon-format-n-timer" viewBox="0 0 12 32">
<path d="M6 0c3.314 0 6 2.686 6 6v20c0 3.314-2.686 6-6 6s-6-2.686-6-6v-20c0-3.314 2.686-6 6-6z"></path>
</symbol>
<symbol id="icon-team-name-n-score" viewBox="0 0 173 32">
<path fill="#fff" style="fill: var(--color1, #fff)" d="M158.689 0h-142.689c-8.837 0-16 7.163-16 16s7.163 16 16 16h142.689c-4.429-3.909-7.222-9.628-7.222-16s2.793-12.091 7.222-16z"></path>
<path fill="#d2042d" style="fill: var(--color2, #d2042d)" d="M172.8 0h-26.667c-8.836 0-16 7.163-16 16s7.164 16 16 16h26.667v-32z"></path>
</symbol>
</defs>
</svg>
